<svg version="1.2" xmlns="http://www.w3.org/2000/svg" viewBox="0 0 818 428" width="818" height="428">
	<title>Layer 1</title>
	<style>
		.s0 { fill: none;stroke: #becac9;stroke-width: 4 } 
		.s1 { fill: #163c7c } 
		.s2 { fill: #becac9 } 
	</style>
	<g id="Layer 1">
		<g id="&lt;Group&gt;">
			<path id="&lt;Path&gt;" class="s0" d="m529.6 360.6l-101.7 58.7-101.7-58.7"/>
			<g id="&lt;Group&gt;">
				<path id="&lt;Compound Path&gt;" fill-rule="evenodd" class="s1" d="m338.7 249.1h12.7c11.6 0 19.2 8.1 19.2 18.7 0 10.7-7.6 18.7-19.2 18.7h-12.7zm12.7 33.2c9.1 0 14.4-6.5 14.4-14.5 0-8.1-5.1-14.6-14.4-14.6h-8.1v29.1z"/>
				<path id="&lt;Compound Path&gt;" class="s1" d="m377.7 259.4h4.2v4.4c2.2-2.9 5.3-4.9 9-4.9v4.3c-0.5-0.1-1-0.2-1.7-0.2-2.5 0-6.1 2.1-7.3 4.3v19.2h-4.2z"/>
				<path id="&lt;Compound Path&gt;" class="s1" d="m395.5 252c0-1.5 1.2-2.8 2.8-2.8 1.5 0 2.8 1.3 2.8 2.8 0 1.6-1.3 2.9-2.8 2.9-1.6 0-2.8-1.3-2.8-2.9zm0.7 7.4h4.2v27.1h-4.2z"/>
				<path id="&lt;Compound Path&gt;" class="s1" d="m404.7 259.4h4.6l9 22.2 9-22.2h4.6l-11.3 27.1h-4.6z"/>
				<path id="&lt;Compound Path&gt;" class="s1" d="m435.5 252c0-1.5 1.3-2.8 2.8-2.8 1.6 0 2.8 1.3 2.8 2.8 0 1.6-1.2 2.9-2.8 2.9-1.5 0-2.8-1.3-2.8-2.9zm0.7 7.4h4.2v27.1h-4.2z"/>
				<path id="&lt;Compound Path&gt;" class="s1" d="m467.1 268.8c0-4.8-2.4-6.3-6.1-6.3-3.3 0-6.4 2-8 4.2v19.8h-4.2v-27.1h4.2v3.9c1.9-2.2 5.6-4.6 9.7-4.6 5.6 0 8.6 2.9 8.6 8.8v19h-4.2z"/>
				<path id="&lt;Compound Path&gt;" fill-rule="evenodd" class="s1" d="m481.7 290.3c2.3 2.7 5 3.7 8.8 3.7 4.5 0 8.7-2.2 8.7-8.2v-3.8c-1.9 2.7-5.2 4.8-9.1 4.8-7 0-12-5.3-12-14 0-8.7 4.9-14.1 12-14.1 3.7 0 6.9 1.8 9.1 4.8v-4.1h4.2v26.3c0 8.9-6.3 11.7-12.9 11.7-4.6 0-7.7-0.9-10.9-4zm17.5-23.4c-1.5-2.4-4.7-4.4-8.1-4.4-5.4 0-8.7 4.3-8.7 10.3 0 6 3.3 10.3 8.7 10.3 3.4 0 6.6-2 8.1-4.4z"/>
				<path id="&lt;Compound Path&gt;" fill-rule="evenodd" class="s1" d="m556.9 281.6l3.5 3.8-3.2 2.8-3.6-3.9c-2.9 1.8-6.3 2.8-10.1 2.8-11.1 0-18.6-8.3-18.6-19.3 0-11 7.5-19.3 18.6-19.3 11 0 18.5 8.3 18.5 19.3 0 5.5-1.9 10.3-5.1 13.8zm-6.3-0.5l-5.3-5.8 3.2-2.7 5.3 5.6c2.1-2.6 3.4-6.2 3.4-10.4 0-8.7-5.4-15.2-13.7-15.2-8.4 0-13.8 6.5-13.8 15.2 0 8.7 5.4 15.2 13.8 15.2 2.7 0 5.1-0.7 7.1-1.9z"/>
				<path id="&lt;Compound Path&gt;" class="s1" d="m587.4 282.7c-2.1 2.3-5.6 4.4-9.7 4.4-5.6 0-8.6-2.7-8.6-8.6v-19.1h4.2v17.8c0 4.8 2.4 6.2 6.1 6.2 3.3 0 6.4-1.9 8-4.1v-19.9h4.2v27.1h-4.2z"/>
				<path id="&lt;Compound Path&gt;" fill-rule="evenodd" class="s1" d="m616.9 283.4c-2.3 2.4-5.3 3.7-9 3.7-4.6 0-9.4-3-9.4-8.9 0-6.1 4.8-8.9 9.4-8.9 3.7 0 6.8 1.1 9 3.7v-4.9c0-3.6-2.9-5.7-6.9-5.7-3.2 0-5.8 1.2-8.2 3.7l-2-2.9c2.9-3 6.4-4.5 10.8-4.5 5.7 0 10.5 2.6 10.5 9.2v18.6h-4.2zm0-7.8c-1.6-2.2-4.5-3.3-7.5-3.3-3.9 0-6.6 2.4-6.6 5.9 0 3.4 2.7 5.9 6.6 5.9 3 0 5.9-1.1 7.5-3.4z"/>
				<path id="&lt;Compound Path&gt;" class="s1" d="m629.5 249.1h4.2v37.4h-4.2z"/>
				<path id="&lt;Compound Path&gt;" class="s1" d="m641.3 252c0-1.5 1.3-2.8 2.8-2.8 1.6 0 2.9 1.3 2.9 2.8 0 1.6-1.3 2.9-2.9 2.9-1.5 0-2.8-1.3-2.8-2.9zm0.8 7.4h4.2v27.1h-4.2z"/>
				<path id="&lt;Compound Path&gt;" class="s1" d="m655.5 280.8v-17.7h-4.5v-3.7h4.5v-7.4h4.2v7.4h5.5v3.7h-5.5v16.8c0 2 0.9 3.5 2.8 3.5 1.1 0 2.3-0.5 2.8-1.1l1.2 3.1c-1 1-2.5 1.7-5 1.7-4 0-6-2.3-6-6.3z"/>
				<path id="&lt;Compound Path&gt;" class="s1" d="m672.6 293.7c1.8 0 3.1-0.6 4-2.9l1.8-4.1-11.3-27.3h4.5l9.1 22.2 8.9-22.2h4.6l-13.5 32.5c-1.7 4-4.4 5.5-8 5.5-0.9 0-2.3-0.1-3.1-0.4l0.7-3.8c0.6 0.3 1.6 0.5 2.3 0.5z"/>
				<path id="&lt;Compound Path&gt;" class="s1" d="m338.7 305.1h4.6v37.4h-4.6z"/>
				<path id="&lt;Compound Path&gt;" class="s1" d="m370.1 324.8c0-4.8-2.4-6.3-6-6.3-3.3 0-6.4 2-8 4.2v19.8h-4.2v-27.1h4.2v3.9c1.9-2.2 5.6-4.6 9.6-4.6 5.7 0 8.6 2.9 8.6 8.8v19h-4.2z"/>
				<path id="&lt;Compound Path&gt;" class="s1" d="m401 324.8c0-4.8-2.4-6.3-6-6.3-3.4 0-6.5 2-8.1 4.2v19.8h-4.2v-27.1h4.2v3.9c1.9-2.2 5.6-4.6 9.7-4.6 5.6 0 8.6 2.9 8.6 8.8v19h-4.2z"/>
				<path id="&lt;Compound Path&gt;" fill-rule="evenodd" class="s1" d="m412 328.9c0-7.8 5.2-14.2 13.4-14.2 8.2 0 13.4 6.4 13.4 14.2 0 7.8-5.2 14.2-13.4 14.2-8.2 0-13.4-6.4-13.4-14.2zm22.4 0c0-5.5-3.2-10.4-9-10.4-5.8 0-9 4.9-9 10.4 0 5.6 3.2 10.5 9 10.5 5.8 0 9-4.9 9-10.5z"/>
				<path id="&lt;Compound Path&gt;" class="s1" d="m441.6 315.4h4.5l9.1 22.2 8.9-22.2h4.6l-11.3 27.1h-4.5z"/>
				<path id="&lt;Compound Path&gt;" fill-rule="evenodd" class="s1" d="m490 339.4c-2.3 2.4-5.3 3.7-9 3.7-4.6 0-9.4-3-9.4-8.9 0-6.1 4.8-8.9 9.4-8.9 3.7 0 6.8 1.1 9 3.7v-4.9c0-3.6-2.9-5.7-6.8-5.7-3.3 0-5.9 1.2-8.3 3.7l-2-2.9c2.9-3 6.4-4.5 10.8-4.5 5.7 0 10.5 2.6 10.5 9.2v18.6h-4.2zm0-7.8c-1.6-2.2-4.5-3.3-7.5-3.3-3.9 0-6.6 2.4-6.6 5.9 0 3.4 2.7 5.9 6.6 5.9 3 0 5.9-1.1 7.5-3.4z"/>
				<path id="&lt;Compound Path&gt;" class="s1" d="m503.4 336.8v-17.7h-4.5v-3.7h4.5v-7.4h4.2v7.4h5.5v3.7h-5.5v16.8c0 2 0.9 3.5 2.8 3.5 1.1 0 2.3-0.5 2.8-1.1l1.3 3.1c-1.1 1-2.6 1.7-5.1 1.7-4 0-6-2.3-6-6.3z"/>
				<path id="&lt;Compound Path&gt;" class="s1" d="m518.3 308c0-1.5 1.3-2.8 2.8-2.8 1.6 0 2.9 1.3 2.9 2.8 0 1.6-1.3 2.9-2.9 2.9-1.5 0-2.8-1.3-2.8-2.9zm0.7 7.4h4.2v27.1h-4.2z"/>
				<path id="&lt;Compound Path&gt;" fill-rule="evenodd" class="s1" d="m530.1 328.9c0-7.8 5.1-14.2 13.4-14.2 8.2 0 13.3 6.4 13.3 14.2 0 7.8-5.1 14.2-13.3 14.2-8.3 0-13.4-6.4-13.4-14.2zm22.3 0c0-5.5-3.2-10.4-8.9-10.4-5.8 0-9.1 4.9-9.1 10.4 0 5.6 3.3 10.5 9.1 10.5 5.7 0 8.9-4.9 8.9-10.5z"/>
				<path id="&lt;Compound Path&gt;" class="s1" d="m581.9 324.8c0-4.8-2.4-6.3-6-6.3-3.3 0-6.5 2-8 4.2v19.8h-4.2v-27.1h4.2v3.9c1.9-2.2 5.6-4.6 9.6-4.6 5.7 0 8.6 2.9 8.6 8.8v19h-4.2z"/>
				<path id="&lt;Compound Path&gt;" fill-rule="evenodd" class="s1" d="m633.5 342.5h-5.8c-1.1-1-2.6-2.4-4.1-4-2.7 2.7-6.3 4.6-10.8 4.6-6.4 0-11.6-3.4-11.6-10.4 0-5.8 3.9-8.8 8.2-11.1-1.7-2.9-2.8-5.7-2.8-8.4 0-5 4.1-8.7 9.4-8.7 4.8 0 8.4 2.7 8.4 7.4 0 5.6-4.8 8-9.5 10.5 1.5 2.1 3.1 3.9 4.3 5.3 1.5 1.8 3 3.4 4.5 5 2-3.1 3.3-6.4 4-8.5l3.6 1.6c-1.3 2.9-2.8 6.5-5.1 9.6 2.2 2.3 4.6 4.5 7.3 7.1zm-12.4-6.5c-2.2-2.3-4.2-4.4-5.2-5.7-1.5-1.8-3.2-3.8-4.6-5.9-3.2 1.9-5.6 4.2-5.6 8 0 4.7 3.6 7.3 7.5 7.3 3.1 0 5.7-1.6 7.9-3.7zm-8-16.3c4-2 7.4-4 7.4-7.6 0-2.8-1.9-4.2-4.4-4.2-2.9 0-5.2 2.2-5.2 5.4 0 1.9 0.9 4.2 2.2 6.4z"/>
				<path id="&lt;Compound Path&gt;" class="s1" d="m646.8 323.8c0-11.5 8.4-19.3 19-19.3 6.8 0 11.4 3.2 14.4 7.4l-4 2.2c-2.1-3.2-6-5.5-10.4-5.5-8 0-14.2 6.3-14.2 15.2 0 8.9 6.2 15.2 14.2 15.2 4.4 0 8.3-2.3 10.4-5.4l4 2.1c-3.1 4.3-7.6 7.4-14.4 7.4-10.6 0-19-7.8-19-19.3z"/>
				<path id="&lt;Compound Path&gt;" class="s1" d="m701.4 338.7c-2 2.3-5.6 4.4-9.6 4.4-5.7 0-8.6-2.7-8.6-8.6v-19.1h4.2v17.8c0 4.8 2.4 6.2 6 6.2 3.3 0 6.5-1.9 8-4.1v-19.9h4.2v27.1h-4.2z"/>
				<path id="&lt;Compound Path&gt;" class="s1" d="m714 305.1h4.2v37.4h-4.2z"/>
				<path id="&lt;Compound Path&gt;" class="s1" d="m727.5 336.8v-17.7h-4.5v-3.7h4.5v-7.4h4.2v7.4h5.5v3.7h-5.5v16.8c0 2 0.9 3.5 2.7 3.5 1.2 0 2.3-0.5 2.9-1.1l1.2 3.1c-1.1 1-2.6 1.7-5 1.7-4 0-6-2.3-6-6.3z"/>
				<path id="&lt;Compound Path&gt;" class="s1" d="m761.4 338.7c-2.1 2.3-5.6 4.4-9.7 4.4-5.6 0-8.6-2.7-8.6-8.6v-19.1h4.2v17.8c0 4.8 2.4 6.2 6 6.2 3.3 0 6.5-1.9 8.1-4.1v-19.9h4.2v27.1h-4.2z"/>
				<path id="&lt;Compound Path&gt;" class="s1" d="m774 315.4h4.2v4.4c2.1-2.9 5.3-4.9 9-4.9v4.3c-0.5-0.1-1-0.2-1.7-0.2-2.6 0-6.1 2.1-7.3 4.3v19.2h-4.2z"/>
				<path id="&lt;Compound Path&gt;" fill-rule="evenodd" class="s1" d="m804.2 314.7c8.2 0 13 6.4 13 14.5v1.1h-21.9c0.3 5.1 3.9 9.4 9.7 9.4 3.1 0 6.2-1.3 8.4-3.5l2 2.8c-2.7 2.7-6.3 4.1-10.8 4.1-8 0-13.7-5.7-13.7-14.2 0-7.8 5.6-14.2 13.3-14.2zm-8.9 12.5h17.7c0-4-2.7-9-8.9-9-5.7 0-8.6 4.9-8.8 9z"/>
			</g>
			<path id="&lt;Compound Path&gt;" fill-rule="evenodd" class="s2" d="m102.1 0.4l101.6 58.7v117.4l-101.6 58.7-101.7-58.7v-117.4zm1.2 179.6c21.9 0 36.3-10.1 46.4-23.8l-12.8-7.1c-6.8 10.3-19.3 17.5-33.6 17.5-25.8 0-45.8-20.4-45.8-48.9 0-28.7 20-48.9 45.8-48.9 14.3 0 26.8 7.4 33.6 17.5l12.7-7.1c-9.6-13.5-24.4-23.8-46.3-23.8-34.1 0-61.4 25.3-61.4 62.3 0 37 27.3 62.3 61.4 62.3z"/>
			<g id="&lt;Group&gt;">
				<path id="&lt;Path&gt;" class="s1" d="m419.1 59.1v117.4l-29.1 16.8-17.8-20.3c12.9-13.8 20.2-33 20.2-54.8 0-44-29.8-77-73.7-77-44.2 0-73.8 33-73.8 77 0 43.9 29.6 76.9 73.8 76.9 15.3 0 28.9-4 40.3-11.2l16.4 17.8-58 33.5-101.7-58.7v-117.4l101.7-58.7z"/>
				<path id="&lt;Path&gt;" class="s1" d="m348.5 148.6l-14.4 8.2 12.9 14.2c-8.1 4.9-17.4 7.6-28.3 7.6-33.5 0-54.7-25.9-54.7-60.4 0-34.8 21.2-60.5 54.7-60.5 33.2 0 54.6 25.7 54.6 60.5 0 16.5-4.9 30.9-13.6 41.4z"/>
			</g>
			<path id="&lt;Compound Path&gt;" fill-rule="evenodd" class="s2" d="m209.7 184.5l101.7 58.7v117.4l-101.7 58.7-101.6-58.7v-117.4zm-46.8 162.7c10.4 11.7 26.6 20.1 48.6 20.1 34.3 0 46.8-18.8 46.8-37.2 0-26.7-23.6-33.1-44.3-38.6-16.1-4.4-30.8-8.2-30.8-20.9 0-12 10.9-20.2 26.1-20.2 13.8 0 27.1 4.8 36.6 15.2l9.5-11.6c-10.6-11.2-25.6-17.7-45-17.7-24.9 0-43.5 14.3-43.5 35.2 0 24.9 22.6 30.6 42.9 35.9 16.8 4.6 32.2 8.8 32.2 24 0 9.7-7.3 21.8-29.9 21.8-17.9 0-31.5-8.7-39.9-18z"/>
		</g>
	</g>
</svg>